/* XPM */
static char *cpu_7[] = {
/* columns rows colors chars-per-pixel */
"36 36 53 1 ",
"  c None",
". c #7E6A6F",
"X c #777F70",
"o c #737B78",
"O c #70787F",
"+ c #A33F41",
"@ c #975053",
"# c #A64040",
"$ c #A64140",
"% c #A64141",
"& c #A44142",
"* c #A54142",
"= c #A54242",
"- c #AA4945",
"; c #B15248",
": c #B65A4B",
"> c #C16A50",
", c #CA7755",
"< c #D07F58",
"1 c #7E8660",
"2 c #7A826A",
"3 c #89943F",
"4 c #8A943F",
"5 c #8B943F",
"6 c #8D953E",
"7 c #8C943F",
"8 c #868E4D",
"9 c #8B9440",
"0 c #8C9440",
"q c #8D9440",
"w c #8A9246",
"e c #969444",
"r c #848C53",
"t c #A09448",
"y c #A9944B",
"u c #B59350",
"i c #D7895B",
"p c #C59356",
"a c #CD9359",
"s c #D7935C",
"d c #DD925F",
"f c #DE935F",
"g c #DF935F",
"h c #DF945F",
"j c #DF9560",
"k c #E19360",
"l c #E09660",
"z c #6F7782",
"x c #6F7981",
"c c #6F7982",
"v c #6F7A82",
"b c #707880",
"n c #707881",
/* pixels */
"                                    ",
"                                    ",
"          0   0      0   0          ",
"         00   00    00   00         ",
"         00  000    000  09         ",
"         00  000    000  00         ",
"        0000 0000  0000 50eu        ",
"       0000000000000000050tpg       ",
"      00000000000000000059yagk      ",
"   000000                  sggggg   ",
"  0000000                  ggggggg  ",
"      000                  ggg      ",
"       00                  gg       ",
"     0000                  gggg     ",
"  0000000     ==    ==     ggggggg  ",
"   000000     =      =     gggggg   ",
"      000                  ggg      ",
"       00                  gg       ",
"       00                  gg       ",
"      000                  ggg      ",
"   000000     =      =     gggggg   ",
"  0000000     ==    ==     ggggggg  ",
"     0000                  gggg     ",
"       00                  gg       ",
"      007                  ljh      ",
"  0000000                  hgggggg  ",
"   00070w                  ,<ighg   ",
"      7082bzbbbxb.@=======-;:>      ",
"       7rXbzbbbxb.@==========       ",
"        1obb bbxb  ==== ===+        ",
"         Ob  bbb    ===  ==         ",
"         bb  bbb    ===  ==         ",
"         bb   bb    ==   ==         ",
"          b   b      =   =          ",
"                                    ",
"                                    "
};
