/* XPM */
static char *cpu_0[] = {
/* columns rows colors chars-per-pixel */
"36 36 2 1 ",
"  c None",
". c #707880",
/* pixels */
"                                    ",
"                                    ",
"          .   .      .   .          ",
"         ..   ..    ..   ..         ",
"         ..  ...    ...  ..         ",
"         ..  ...    ...  ..         ",
"        .... ....  .... ....        ",
"       ......................       ",
"      ........................      ",
"   ......                  ......   ",
"  .......                  .......  ",
"      ...                  ...      ",
"       ..                  ..       ",
"     ....                  ....     ",
"  .......     ..    ..     .......  ",
"   ......     .      .     ......   ",
"      ...                  ...      ",
"       ..                  ..       ",
"       ..                  ..       ",
"      ...                  ...      ",
"   ......     .      .     ......   ",
"  .......     ..    ..     .......  ",
"     ....                  ....     ",
"       ..                  ..       ",
"      ...                  ...      ",
"  .......                  .......  ",
"   ......                  ......   ",
"      ........................      ",
"       ......................       ",
"        .... ....  .... ....        ",
"         ..  ...    ...  ..         ",
"         ..  ...    ...  ..         ",
"         ..   ..    ..   ..         ",
"          .   .      .   .          ",
"                                    ",
"                                    "
};
