/* XPM */
static char *cpu_5[] = {
/* columns rows colors chars-per-pixel */
"36 36 37 1 ",
"  c None",
". c #777F70",
"X c #737B78",
"o c #70787F",
"O c #8D7F77",
"+ c #7E8660",
"@ c #7A826A",
"# c #89943F",
"$ c #8A943F",
"% c #8B943F",
"& c #8D953E",
"* c #8C943F",
"= c #868E4D",
"- c #8B9440",
"; c #8C9440",
": c #8D9440",
"> c #8A9246",
", c #969444",
"< c #848C53",
"1 c #A09448",
"2 c #A9944B",
"3 c #B59350",
"4 c #C59356",
"5 c #CD9359",
"6 c #D7935C",
"7 c #DE935F",
"8 c #DF935F",
"9 c #E0935F",
"0 c #E1945E",
"q c #C18C68",
"w c #E19360",
"e c #6D7781",
"r c #6F7782",
"t c #6E7880",
"y c #6F7880",
"u c #707880",
"i c #707881",
/* pixels */
"                                    ",
"                                    ",
"          ;   ;      ;   ;          ",
"         ;;   ;;    ;;   ;;         ",
"         ;;  ;;;    ;;;  ;-         ",
"         ;;  ;;;    ;;;  ;;         ",
"        ;;;; ;;;;  ;;;; -;,3        ",
"       ;;;;;;;;;;;;;;;;;$;147       ",
"      ;;;;;;;;;;;;;;;;;;$-257w      ",
"   ;;;;;;                  677777   ",
"  ;;;;;;;                  7777777  ",
"      ;;;                  777      ",
"       ;;                  77       ",
"     ;;;;                  7777     ",
"  ;;;;;;;     77    77     7777777  ",
"   ;;;;;;     7      7     009777   ",
"      ;;;                  777      ",
"       ;;                  qq       ",
"       ;;                  OO       ",
"      ;;;                  yyy      ",
"   ;;;;;;     7      7     eeyuuu   ",
"  ;;;;;;;     77    77     uuuuuuu  ",
"     ;;;;                  uuuu     ",
"       ;;                  uu       ",
"      ;;*                  uuu      ",
"  ;;;;;;;                  uuuuuuu  ",
"   ;;;*;>                  uuuuuu   ",
"      *;=@ueuuuuuuuuuuuuuuuuuu      ",
"       *<.ueuuuuuuuuuuuuuuuuu       ",
"        +Xuu uuuu  uuuu uuuu        ",
"         ou  uuu    uuu  uu         ",
"         uu  uuu    uuu  uu         ",
"         uu   uu    uu   uu         ",
"          u   u      u   u          ",
"                                    ",
"                                    "
};
