/* XPM */
static char *cpu_6[] = {
/* columns rows colors chars-per-pixel */
"36 36 43 1 ",
"  c None",
". c #777F70",
"X c #737B78",
"o c #70787F",
"O c #7A7A7D",
"+ c #867D79",
"@ c #7E8660",
"# c #7A826A",
"$ c #89943F",
"% c #8A943F",
"& c #8B943F",
"* c #8D953E",
"= c #8C943F",
"- c #868E4D",
"; c #8B9440",
": c #8C9440",
"> c #8D9440",
", c #8A9246",
"< c #969444",
"1 c #848C53",
"2 c #A09448",
"3 c #A9944B",
"4 c #B59350",
"5 c #918076",
"6 c #B88A6B",
"7 c #A78570",
"8 c #C59356",
"9 c #CD9359",
"0 c #D7935C",
"q c #DD935F",
"w c #DE935F",
"e c #DF935F",
"r c #E0935E",
"t c #E1945E",
"y c #E2945E",
"u c #C38C67",
"i c #D09063",
"p c #E19360",
"a c #6C7781",
"s c #6F7782",
"d c #6F7880",
"f c #707880",
"g c #707881",
/* pixels */
"                                    ",
"                                    ",
"          :   :      :   :          ",
"         ::   ::    ::   ::         ",
"         ::  :::    :::  :;         ",
"         ::  :::    :::  ::         ",
"        :::: ::::  :::: ;:<4        ",
"       :::::::::::::::::%:28w       ",
"      ::::::::::::::::::%;39wp      ",
"   ::::::                  0wwwww   ",
"  :::::::                  wwwwwww  ",
"      :::                  www      ",
"       ::                  ww       ",
"     ::::                  wwww     ",
"  :::::::     ww    ww     wwwwwww  ",
"   ::::::     w      w     wwwwww   ",
"      :::                  www      ",
"       ::                  ww       ",
"       ::                  ww       ",
"      :::                  www      ",
"   ::::::     w      w     wwwwww   ",
"  :::::::     ww    ww     wwwwwww  ",
"     ::::                  wwww     ",
"       ::                  ww       ",
"      ::=                  yyr      ",
"  :::::::                  wwwwwww  ",
"   :::=:,                  6uiwww   ",
"      =:-#faffffffffffffdfO+57      ",
"       =1.fafffffffffffffffdd       ",
"        @Xff ffff  ffff ffda        ",
"         of  fff    fff  ff         ",
"         ff  fff    fff  ff         ",
"         ff   ff    ff   ff         ",
"          f   f      f   f          ",
"                                    ",
"                                    "
};
