/* XPM */
static char *cpu_1[] = {
/* columns rows colors chars-per-pixel */
"36 36 19 1 ",
"  c None",
". c #777F6F",
"X c #777F70",
"o c #737B78",
"O c #70787F",
"+ c #7E8660",
"@ c #7A826A",
"# c #78806F",
"$ c #8D953E",
"% c #8C943F",
"& c #868E4D",
"* c #8C9440",
"= c #8A9246",
"- c #848C51",
"; c #858D51",
": c #848C53",
"> c #6F7782",
", c #707880",
"< c #707881",
/* pixels */
"                                    ",
"                                    ",
"          ,   ,      ,   ,          ",
"         ,,   ,,    ,,   ,,         ",
"         ,,  ,,,    ,,,  ,,         ",
"         ,,  ,,,    ,,,  ,,         ",
"        ,,,, ,,,,  ,,,, ,,,,        ",
"       ,,,,,,,,,,,,,,,,,,,,,,       ",
"      ,,,,,,,,,,,,,,,,,,,,,,,,      ",
"   ,,,,,,                  ,,,,,,   ",
"  ,,,,,,,                  ,,,,,,,  ",
"      ,,,                  ,,,      ",
"       ,,                  ,,       ",
"     ,,,,                  ,,,,     ",
"  ,,,,,,,     **    **     ,,,,,,,  ",
"   ,,,,>>     *      *     ,,,,,,   ",
"      ,,,                  ,,,      ",
"       .#                  ,,       ",
"       ::                  ,,       ",
"      ***                  ,,,      ",
"   ***%%%     *      *     ,,,,,,   ",
"  *******     **    **     ,,,,,,,  ",
"     ****                  ,,,,     ",
"       **                  ,,       ",
"      **%                  ,,,      ",
"  *******                  ,,,,,,,  ",
"   ***%*=                  ,,,,,,   ",
"      %*&@,>,,,,,,,,,,,,,,,,,,      ",
"       %:X,>,,,,,,,,,,,,,,,,,       ",
"        +o,, ,,,,  ,,,, ,,,,        ",
"         O,  ,,,    ,,,  ,,         ",
"         ,,  ,,,    ,,,  ,,         ",
"         ,,   ,,    ,,   ,,         ",
"          ,   ,      ,   ,          ",
"                                    ",
"                                    "
};
