/* XPM */
static char *cpu_4[] = {
/* columns rows colors chars-per-pixel */
"36 36 22 1 ",
"  c None",
". c #777F70",
"X c #767E73",
"o c #737B78",
"O c #727A7A",
"+ c #70787F",
"@ c #7E8660",
"# c #7A826A",
"$ c #78806D",
"% c #8D953E",
"& c #8C943F",
"* c #868E4D",
"= c #8C9440",
"- c #8C9441",
"; c #8A9246",
": c #899148",
"> c #858D50",
", c #848C53",
"< c #828A56",
"1 c #6F7782",
"2 c #707880",
"3 c #707881",
/* pixels */
"                                    ",
"                                    ",
"          =   =      =   =          ",
"         ==   ==    ==   ==         ",
"         ==  ===    ===  =&         ",
"         ==  ===    ===  ==         ",
"        ==== ====  ==== &=:@        ",
"       =================&=>$3       ",
"      ==================&&<X31      ",
"   ======                  O33333   ",
"  =======                  3333333  ",
"      ===                  333      ",
"       ==                  33       ",
"     ====                  3333     ",
"  =======     ==    ==     3333333  ",
"   ======     =      =     333333   ",
"      ===                  333      ",
"       ==                  33       ",
"       ==                  33       ",
"      ===                  333      ",
"   ======     =      =     333333   ",
"  =======     ==    ==     3333333  ",
"     ====                  3333     ",
"       ==                  33       ",
"      ==&                  333      ",
"  =======                  3333333  ",
"   ===&=;                  333333   ",
"      &=*#31333333333333333333      ",
"       &>X3133333333333333333       ",
"        @o33 3333  3333 3333        ",
"         +3  333    333  33         ",
"         33  333    333  33         ",
"         33   33    33   33         ",
"          3   3      3   3          ",
"                                    ",
"                                    "
};
