/* XPM */
static char *new_logo[] = {
/* columns rows colors chars-per-pixel */
"36 36 246 2 ",
"   c None",
".  c #DE6A1A",
"X  c #DE6A1B",
"o  c #DE6B1C",
"O  c #DE6B1D",
"+  c #DF6C1D",
"@  c #DF6C1E",
"#  c #DF6C1F",
"$  c #DF6D1F",
"%  c #E26C1C",
"&  c #E26D1E",
"*  c #DF6D20",
"=  c #DF6E20",
"-  c #DF6E21",
";  c #DF6F22",
":  c #DF6F23",
">  c #DF7023",
",  c #DF7024",
"<  c #E07226",
"1  c #E07227",
"2  c #E07328",
"3  c #E07329",
"4  c #E0752B",
"5  c #E0762D",
"6  c #E1762D",
"7  c #E17831",
"8  c #E17931",
"9  c #E27A34",
"0  c #E27B35",
"q  c #E27B36",
"w  c #E07D37",
"e  c #E27D37",
"r  c #907D5F",
"t  c #947D5D",
"y  c #E3803D",
"u  c #E3813E",
"i  c #E3823F",
"p  c #988263",
"a  c #A08462",
"s  c #A5947B",
"d  c #E38746",
"f  c #E48544",
"g  c #E48545",
"h  c #E5894B",
"j  c #E58B4D",
"k  c #E68C4F",
"l  c #E68E53",
"z  c #E39357",
"x  c #E79259",
"c  c #E7935A",
"v  c #E8965F",
"b  c #E89963",
"n  c #E99D69",
"m  c #DFA276",
"M  c #E5A06A",
"N  c #EBA16E",
"B  c #E7A573",
"V  c #EAA779",
"C  c #EBA779",
"Z  c #E6AB79",
"A  c #E6AF7F",
"S  c #EBA87A",
"D  c #1C94B9",
"F  c #1D94B9",
"G  c #1D95B9",
"H  c #1E94B9",
"J  c #1E95B9",
"K  c #1F95B9",
"L  c #1D95BA",
"P  c #1F95BA",
"I  c #1F96BB",
"U  c #2095BA",
"Y  c #2096BA",
"T  c #2197BA",
"R  c #2297BB",
"E  c #2398BB",
"W  c #2498BB",
"Q  c #2599BC",
"!  c #2699BC",
"~  c #2899BC",
"^  c #299ABD",
"/  c #2A9BBD",
"(  c #2B9BBD",
")  c #319EBF",
"_  c #34A0C0",
"`  c #36A0C1",
"'  c #3BA3C2",
"]  c #3CA3C3",
"[  c #40A5C4",
"{  c #46A6C4",
"}  c #48A5C2",
"|  c #48A9C6",
" . c #4EABC8",
".. c #54AECA",
"X. c #58B0CB",
"o. c #64AEC7",
"O. c #63B5CF",
"+. c #64B6CF",
"@. c #6AB9D1",
"#. c #71BCD3",
"$. c #73BDD3",
"%. c #7AC0D5",
"&. c #7BC0D6",
"*. c #E6AF80",
"=. c #ECAC80",
"-. c #ECAD81",
";. c #E7B081",
":. c #E7B082",
">. c #E7B182",
",. c #E7B183",
"<. c #E7B284",
"1. c #E7B285",
"2. c #E8B081",
"3. c #E8B083",
"4. c #E8B386",
"5. c #E8B488",
"6. c #E8B58A",
"7. c #E8B68B",
"8. c #EEB58F",
"9. c #E9B88E",
"0. c #E9B98F",
"q. c #F0B187",
"w. c #E9B990",
"e. c #EABA91",
"r. c #EABA92",
"t. c #EABB93",
"y. c #EFB892",
"u. c #EFB994",
"i. c #EABC94",
"p. c #EBBF99",
"a. c #EDBF9C",
"s. c #F0BD9B",
"d. c #F0BE9C",
"f. c #D9BEA6",
"g. c #ECC19C",
"h. c #ECC39F",
"j. c #F1C09E",
"k. c #F1C09F",
"l. c #EDC6A5",
"z. c #EFCCAE",
"x. c #F1C1A0",
"c. c #F1C1A1",
"v. c #F1C2A1",
"b. c #F1C3A3",
"n. c #F1C3A4",
"m. c #F1C4A5",
"M. c #F2C4A5",
"N. c #F2C5A6",
"B. c #F0CAAD",
"V. c #F2CBAF",
"C. c #EFCFB4",
"Z. c #E1CBB8",
"A. c #F0CEB2",
"S. c #F0CFB3",
"D. c #EFD0B5",
"F. c #EFD0B6",
"G. c #F1D4BA",
"H. c #F1D4BB",
"J. c #F5D3BD",
"K. c #F2D6BE",
"L. c #F5D5BF",
"P. c #8EBED0",
"I. c #80C3D8",
"U. c #86C6D9",
"Y. c #89C7DA",
"T. c #8DC9DB",
"R. c #8FCADC",
"E. c #94CCDE",
"W. c #98CEDF",
"Q. c #9ACFDF",
"!. c #A9C8D5",
"~. c #9DD0E0",
"^. c #9FD2E1",
"/. c #A3D3E2",
"(. c #A4D3E2",
"). c #A8D6E5",
"_. c #B5DCE8",
"`. c #B6DCE8",
"'. c #B8DDE9",
"]. c #BDDFE9",
"[. c #BCDFEA",
"{. c #D6CDC0",
"}. c #C4D1DB",
"|. c #C4D2DB",
" X c #C5D2DB",
".X c #C6D3DB",
"XX c #C6D3DC",
"oX c #C7D4DC",
"OX c #C8D3DC",
"+X c #C9D4DD",
"@X c #C8D5DE",
"#X c #CAD6DE",
"$X c #F5D6C1",
"%X c #F3D9C2",
"&X c #F3DAC5",
"*X c #F4DBC6",
"=X c #F4DECA",
"-X c #F5DECC",
";X c #F5DFCC",
":X c #F5E0CE",
">X c #C9DAE3",
",X c #CED9E1",
"<X c #CFDAE1",
"1X c #D3DDE4",
"2X c #D5DEE5",
"3X c #CBE3EB",
"4X c #D9E2E8",
"5X c #D3EAF1",
"6X c #E0E7EC",
"7X c #E4E9ED",
"8X c #E4EAEE",
"9X c #F7EAE0",
"0X c #FAEAE0",
"qX c #FAEBE1",
"wX c #FAECE2",
"eX c #FAEDE4",
"rX c #FAEDE5",
"tX c #FBEEE5",
"yX c #FBEFE7",
"uX c #FAF0E8",
"iX c #FBF0E9",
"pX c #FCF4EE",
"aX c #E6EEF2",
"sX c #E8EDF0",
"dX c #E5F2F6",
"fX c #EBF0F2",
"gX c #ECF0F3",
"hX c #EEF2F4",
"jX c #F3F5F7",
"kX c #FBF5F0",
"lX c #FCF5F0",
"zX c #FCF6F1",
"xX c #FCF7F3",
"cX c #FDF9F6",
"vX c #FDF9F7",
"bX c #F1F8FA",
"nX c #F7F9FA",
"mX c #F9FCFC",
"MX c #FBFCFC",
"NX c #FDFDFD",
"BX c #FEFDFD",
"VX c #FEFEFE",
"CX c #FFFFFE",
"ZX c #FEFEFF",
"AX c #FEFFFF",
"SX c #FFFFFF",
/* pixels */
"                                                                        ",
"                                                                        ",
"                                                                        ",
"                                |.f.2.                                  ",
"                            |.|.+XZ.4.:.:.                              ",
"                        |.|.|.2XhX9X*Xh.:.:.                            ",
"                      |.|.,XaXMXCXF.h.=XK.r.:.:.                        ",
"                  |.|.+X6XnXCXCXCXC.A 5.z.:XA.5.:.:.                    ",
"              |.|.oX4XjXCXCXCXCXCXC.:.:.:.9.H.-Xl.1.:.:.                ",
"          OX|.|.1XgXCXCXCXCXCXCXCXC.:.1.1.:.:.p.&X&Xp.:.:.              ",
"        o.!.,X7X7XjXCXCXCXCXCXCXCXC.*.r.&Xh.:.:.1.l.-XH.9.M             ",
"        H { 3X>X+XgXCXCXCXCXCXCXCXC.*.r.zXzX%Xr.:.:.5.B.B.5 *           ",
"        H ' W.} P.aXCXCXCXCXCXCXCXC.*.r.kXCXCXuXA.2.z d x.3 *           ",
"        H ] W.R ~ ].CXCXCXCXCXCXCXC.*.r.kXCXCXCXCX-.X q k.3 *           ",
"        H ] W.W R `.CXCXCXCXCXCXCXC.*.r.kXCXCXCXCXd.h b N.3 *           ",
"        H ] W.W R `.CXCXCXCXCXCXCXC.*.i.kXCXCXCXCXcXzXcXL.1 *           ",
"        H ] W.W R `.CXCXCXCXCXCXCXF.Z B uXCXCXCXCXCXCXCX$X1 *           ",
"        H ] W.W R `.CXCXCXCXCXCXCXa.w u rXCXCXCXCXCXCXCX$X1 *           ",
"        H ] W.W R `.CXCXCXCXCXCXCXV X u rXCXCXCXCXCXCXCX$X1 *           ",
"        H ] W.W R `.CXCXCXCXCXCXCXV X u rXCXCXCXCXCXCXCX$X1 *           ",
"        H ] W.W R `.CXCXCXCXCXCXCXV X u rXCXCXCXCXpXqXrXJ.1 *           ",
"        H ] W.W R '.CXCXCXCXCXCXCXV X u rXCXCXCXCXy.q l x.3 *           ",
"        H ] W.W R U.bXCXCXCXCXCXCXV X u rXCXCXCXwXv o w k.3 *           ",
"        H ] ~.Q H E X.'.mXCXCXCXCXV X u rXCXzXx.g * + u N.3 *           ",
"        H ~ E.R.[ H H ~ #.5XCXCXCXV X u qXL.c , o * l x.-.* *           ",
"          H Q +./.&.) H H _ T.dXCXV o 7 b 5 o + u 8.k.l * *             ",
"            H H ) &./.O.Q H H | ).m + * + o 7 S N.n 3 + *               ",
"                H H [ R.W. .R H Q a & + 1 b N.-.q + *                   ",
"                    H R ..~.Y.' H t & j s.u.g + +                       ",
"                      R H ~ @.(.$.s q.x.x > +                           ",
"                          H H _ I.{.N 4 + *                             ",
"                              H H p & *                                 ",
"                                R r                                     ",
"                                                                        ",
"                                                                        ",
"                                                                        "
};
