/* XPM */
static char *temperature_4[] = {
/* columns rows colors chars-per-pixel */
"27 36 21 1 ",
"  c None",
". c #757D74",
"X c #757D75",
"o c #70787F",
"O c #8E963B",
"+ c #8D953D",
"@ c #8E963C",
"# c #8D953E",
"$ c #8C943F",
"% c #8D953F",
"& c #8B9341",
"* c #8B9342",
"= c #8B9343",
"- c #8C9440",
"; c #8C9441",
": c #6F7781",
"> c #6F7782",
", c #6F7783",
"< c #6E7684",
"1 c #707880",
"2 c #707881",
/* pixels */
"                           ",
"                           ",
"          1111111111       ",
"         11111111111       ",
"   11111111111111111       ",
"  111111111       11       ",
"   11111111       11       ",
"         11       11       ",
"         11       11       ",
"   11111111       11       ",
"  111111111       11       ",
"        111       11       ",
"         11       11       ",
"    11  111       11       ",
"  111111111       11       ",
"   11111111       11       ",
"         11       11       ",
"         11       11       ",
"         11       11       ",
"         11       111      ",
"       1111   -   >111     ",
"       111o  %-%  o1111    ",
"      11><  &%-%-  <>111   ",
"     1111  -------  >1111  ",
"    1111.  %-----%O  o111  ",
"    11>  &%-------%&  >11  ",
"    11>  %---------%   11  ",
"    11>  %---------%   11  ",
"    11>  &%%-%%%%%%&  >11  ",
"    1111.            o111  ",
"     111o           o1111  ",
"      111>         >1111   ",
"       1111111111111111    ",
"        11111111111111     ",
"                           ",
"                           "
};
