/* XPM */
static char *temperature_8[] = {
/* columns rows colors chars-per-pixel */
"27 36 46 1 ",
"  c None",
". c #7D6B71",
"X c #7B6D73",
"o c #7C6C72",
"O c #796F75",
"+ c #7A6E74",
"@ c #7A6E75",
"# c #787076",
"$ c #787077",
"% c #767279",
"& c #74747B",
"* c #73757C",
"= c #73757D",
"- c #71777F",
"; c #72767E",
": c #70787F",
"> c #A73F3F",
", c #A93D3D",
"< c #A93E3E",
"1 c #A83F3E",
"2 c #A83F3F",
"3 c #A7403F",
"4 c #8F595C",
"5 c #8E5A5D",
"6 c #955255",
"7 c #955355",
"8 c #945356",
"9 c #935557",
"0 c #915659",
"q c #91575A",
"w c #A74040",
"e c #A64140",
"r c #A64141",
"t c #A54241",
"y c #A54242",
"u c #A44343",
"i c #A34444",
"p c #A44444",
"a c #8A5E62",
"s c #6F7981",
"d c #6F7982",
"f c #6D7B83",
"g c #6E7A82",
"h c #6D7B84",
"j c #707880",
"k c #707881",
/* pixels */
"                           ",
"                           ",
"          kkkkkkkkkk       ",
"         ;kkkkkkkkkk       ",
"   yyy2y5$ksk h skkk       ",
"  yyyyyy8.k       kk       ",
"   yyy3y0+k       kk       ",
"         ;k   y2  sk       ",
"         &s  2y3  sk       ",
"   yyyyy9Xs  2y3  sk       ",
"  yyyyyy8os   y3  sk       ",
"        a&k   y3  sk       ",
"         ;k   y3  sk       ",
"    yy  5$s   y3  sk       ",
"  yyyyyy8.s   y3  sk       ",
"   yyy3y0+s   y3  sk       ",
"         ;s   y3  sk       ",
"         kk   y3  sk       ",
"         kk   y3  sk       ",
"         ks   y3  skk      ",
"       kkks   y2  skkk     ",
"       kkk;  2yy  ;kkkk    ",
"      kksh  pyyyy  hskkk   ",
"     kkkk  yyyyyyy  skkkk  ",
"    kksk+  3yyyyyy2  ;skk  ",
"    kks  iyyyyyyyyyy  skk  ",
"    kks  3yyyyyyyyyy   kk  ",
"    kks  yyyyyyyyyyy   kk  ",
"    kks  iyyyyyyyyyy  skk  ",
"    kksk+            ;skk  ",
"     kkk;           ;kkkk  ",
"      kkks         sskkk   ",
"       kkkkkkkkkkkkkkkk    ",
"        kkkkkkkkkkkkkk     ",
"                           ",
"                           "
};
