/* XPM */
static char *temperature_7[] = {
/* columns rows colors chars-per-pixel */
"27 36 40 1 ",
"  c None",
". c #7D6B71",
"X c #7B6D73",
"o c #7C6C72",
"O c #796F75",
"+ c #7A6E74",
"@ c #787077",
"# c #767279",
"$ c #75737A",
"% c #73757C",
"& c #71777F",
"* c #72767E",
"= c #70787F",
"- c #A73F3F",
"; c #A93D3D",
": c #A93E3E",
"> c #A83F3E",
", c #A7403F",
"< c #8E5A5D",
"1 c #955355",
"2 c #945356",
"3 c #945456",
"4 c #915659",
"5 c #A74040",
"6 c #A64140",
"7 c #A64141",
"8 c #A54241",
"9 c #A54242",
"0 c #A44343",
"q c #A34444",
"w c #A44444",
"e c #8A5E62",
"r c #6F7981",
"t c #6F7982",
"y c #6D7B83",
"u c #6E7A82",
"i c #6E7A83",
"p c #6D7B84",
"a c #707880",
"s c #707881",
/* pixels */
"                           ",
"                           ",
"          aaaaaaaaaa       ",
"         aaaaaaaaaaa       ",
"   aaaaaaaaaaaaaaaaa       ",
"  aaaaaaaaa       aa       ",
"   iiiiiiaa       aa       ",
"         aa       aa       ",
"         $a       aa       ",
"   666>63Xa       aa       ",
"  6666662oa       aa       ",
"        e$a   6   ia       ",
"         *a   6,  ia       ",
"    66  <@i  >6,  ia       ",
"  6666662.i  >6,  ia       ",
"   666664+i   6,  ia       ",
"         *i   66  ia       ",
"         ai   66  ia       ",
"         ai   66  ia       ",
"         ai   66  iaa      ",
"       aaai   66  iaaa     ",
"       aaa*  >66  =aaaa    ",
"      aaip  q6666  iiaaa   ",
"     aaaa  6666666  iaaaa  ",
"    aaia+  6666666>  *iaa  ",
"    aai  q6666666666  iaa  ",
"    aai  66666666666   aa  ",
"    aai  ,6666666666   aa  ",
"    aai  q666666666w  iaa  ",
"    aaia+            *iaa  ",
"     aaa=           *aaaa  ",
"      aaii         iiaaa   ",
"       aaaaaaaaaaaaaaaa    ",
"        aaaaaaaaaaaaaa     ",
"                           ",
"                           "
};
