/* XPM */
static char *temperature_5[] = {
/* columns rows colors chars-per-pixel */
"27 36 30 1 ",
"  c None",
". c #72787F",
"X c #837D7A",
"o c #857D7A",
"O c #DC935F",
"+ c #DD935F",
"@ c #DE935F",
"# c #DF935F",
"$ c #E0935E",
"% c #E0935F",
"& c #E0945E",
"* c #E1945E",
"= c #E2945E",
"- c #E3945E",
"; c #E4955D",
": c #E7955C",
"> c #DA9260",
", c #DB9260",
"< c #DC9260",
"1 c #697682",
"2 c #6A7682",
"3 c #6B7782",
"4 c #6C7781",
"5 c #6D7781",
"6 c #6E7781",
"7 c #6E7880",
"8 c #6F7880",
"9 c #6E7881",
"0 c #707880",
"q c #717880",
/* pixels */
"                           ",
"                           ",
"          0000000000       ",
"         00000000000       ",
"   00000000000000000       ",
"  000000000       00       ",
"   00000000       00       ",
"         00       00       ",
"         00       00       ",
"   00000000       00       ",
"  000000000       00       ",
"        000       00       ",
"         00       00       ",
"    00  000       00       ",
"  000000000       00       ",
"   00000000       00       ",
"         00       00       ",
"         00       80       ",
"         08   #   80       ",
"         08   #*  500      ",
"       0008   #*  5000     ",
"       0000  :#*  00000    ",
"      0052  ,*###  25000   ",
"     0008  #######  50000  ",
"    0080X  *#####*:  .800  ",
"    005  ,#########<  200  ",
"    002  *#########$   00  ",
"    002  *#########$   00  ",
"    005  ,#$######$,  200  ",
"    0080o            .800  ",
"     0000           .0000  ",
"      0085         28000   ",
"       0000000000000000    ",
"        00000000000000     ",
"                           ",
"                           "
};
