/* XPM */
static char *ram_0[] = {
/* columns rows colors chars-per-pixel */
"36 24 2 1 ",
"  c None",
". c #707880",
/* pixels */
"                                    ",
"                                    ",
"   ..............................   ",
"  .                              .  ",
"  .                              .  ",
"  .                              .  ",
"  .                            ...  ",
"  .                            ..   ",
"  .   ....  ....  ..... ....  .     ",
"  .   ....  .. .  .. .. ....  .     ",
"  .   ....  ....  ..... ....  .     ",
"  .    ...  ....  ....   ...  .     ",
"  .                            ...  ",
"  .                             ..  ",
"  .                              .  ",
"  .                              .  ",
"  .                  ..          .  ",
"  .                  ...         .  ",
"  .  .  .  .  .     .   .  .  .  .  ",
"  .  .  . .. .. ..  .   .. .  .  .  ",
"  .  . .. .. .. .. ..   .. .. .  .  ",
"  ...................   ..........  ",
"                                    ",
"                                    "
};
