/* XPM */
static char *ram_4[] = {
/* columns rows colors chars-per-pixel */
"36 24 13 1 ",
"  c None",
". c #757D76",
"X c #737B78",
"o c #71797E",
"O c #70787F",
"+ c #7D8563",
"@ c #8D953E",
"# c #8C943F",
"$ c #8B9342",
"% c #8C9440",
"& c #858D50",
"* c #6F7781",
"= c #707880",
/* pixels */
"                                    ",
"                                    ",
"   ==============================   ",
"  =                              =  ",
"  =                              =  ",
"  =                              =  ",
"  =                            ===  ",
"  =                            ==   ",
"  =   %%%%  %%%%  %%%%% %%%%  *     ",
"  =   %%%%  %% %  %% %% %%%%  *     ",
"  =   %%%%  %%%%  %%%%% %%%%  *     ",
"  =    %%%  %%%%  %%%%   %%%  *     ",
"  =                            ===  ",
"  =                             ==  ",
"  =                              =  ",
"  =                              =  ",
"  =                  ==          =  ",
"  =                  ===         =  ",
"  *  %  %  %  %     =   =  =  =  =  ",
"  *  %  % %% %% *=  =   == =  =  =  ",
"  O  % %% %% %% XO ==   == == =  =  ",
"  .&#%%%%%%%%%#$+O===   ==========  ",
"                                    ",
"                                    "
};
