/* XPM */
static char *music_paused[] = {
/* columns rows colors chars-per-pixel */
"32 36 2 1 ",
"  c None",
". c #707880",
/* pixels */
"                                ",
"                                ",
"                                ",
"                                ",
"                                ",
"                                ",
"                                ",
"       ......      ......       ",
"       .......    .......       ",
"       ... ...    ... ...       ",
"       ..  ...    ...  ..       ",
"       ..  ...    ...  ..       ",
"       ..  ...    ...  ..       ",
"       ..  ...    ...  ..       ",
"       ..  ...    ...  ..       ",
"       ..  ...    ...  ..       ",
"       ..  ...    ...  ..       ",
"       ..  ...    ...  ..       ",
"       ..  ...    ...  ..       ",
"       ..  ...    ...  ..       ",
"       ..  ...    ...  ..       ",
"       ..  ...    ...  ..       ",
"       ..  ...    ...  ..       ",
"       ..  ...    ...  ..       ",
"       ..  ...    ...  ..       ",
"       ..  ...    ...  ..       ",
"       ... ...    ... ...       ",
"       .......    .......       ",
"       ......      ......       ",
"                                ",
"                                ",
"                                ",
"                                ",
"                                ",
"                                ",
"                                "
};
