/* XPM */
static char *music_stopped[] = {
/* columns rows colors chars-per-pixel */
"32 36 2 1 ",
"  c None",
". c #373B41",
/* pixels */
"                                ",
"                                ",
"                                ",
"                                ",
"                                ",
"                                ",
"                                ",
"     ......................     ",
"     ......................     ",
"     ..                  ..     ",
"     ..                  ..     ",
"    ...                  ...    ",
"     ..                  ..     ",
"     ..                  ..     ",
"     ..                  ..     ",
"     ..                  ..     ",
"     ..                  ..     ",
"     ..                  ..     ",
"     ..                  ..     ",
"     ..                  ..     ",
"     ..                  ..     ",
"     ..                  ..     ",
"     ..                  ..     ",
"     ..                  ..     ",
"    ...                  ...    ",
"     ..                  ..     ",
"     ..                  ..     ",
"     ......................     ",
"     ......................     ",
"                                ",
"                                ",
"                                ",
"                                ",
"                                ",
"                                ",
"                                "
};
