/* XPM */
static char *music_playing[] = {
/* columns rows colors chars-per-pixel */
"32 36 2 1 ",
"  c None",
". c #85678F",
/* pixels */
"                                ",
"                                ",
"                                ",
"                                ",
"                                ",
"                                ",
"                                ",
"     ....                       ",
"     .....                      ",
"     ........                   ",
"     .........                  ",
"     ...   .......              ",
"     ..    .......              ",
"    ...      ........           ",
"     ..         .......         ",
"     ..          .......        ",
"     ..             .......     ",
"     ..              ......     ",
"     ..              ......     ",
"     ..             .......     ",
"     ..          .......        ",
"     ..         .......         ",
"    ...      ........           ",
"     ..    .......              ",
"     ...   .......              ",
"     .........                  ",
"     ........                   ",
"     .....                      ",
"     ....                       ",
"                                ",
"                                ",
"                                ",
"                                ",
"                                ",
"                                ",
"                                "
};
