/* XPM */
static char *network_rx_8[] = {
/* columns rows colors chars-per-pixel */
"36 36 5 1 ",
"  c None",
". c #A54242",
"X c #8C9440",
"o c #DE935F",
"O c #707880",
/* pixels */
"                                    ",
"                                    ",
"   O                                ",
"  OOO                               ",
"  OOO                               ",
"  OOO                               ",
"  OOO                               ",
"  OOO                               ",
"  OOO                               ",
"  OOO                               ",
"  OOO                               ",
"  OOO         XXXXXXXX              ",
"  OOO         XXXXXXXX              ",
"  OO           XXXXXX               ",
"  OOO  OO                           ",
"  OOO  O                            ",
"  OOOOO                             ",
"  OOOO                              ",
"  OOO       XXXXXXXXXXXX            ",
"  OO       XXXXXXXXXXXXXX           ",
"                                    ",
"                                    ",
"                                    ",
"                                    ",
"                                    ",
"       oooooooooooooooooooooo       ",
"       oooooooooooooooooooooo       ",
"                                    ",
"                                    ",
"                                    ",
"                                    ",
"   ..............................   ",
"  ................................  ",
"   ..............................   ",
"                                    ",
"                                    "
};
