/* XPM */
static char *network_rx_1[] = {
/* columns rows colors chars-per-pixel */
"36 36 7 1 ",
"  c None",
". c #373B41",
"X c #3A3E41",
"o c #565C41",
"O c #7D8540",
"+ c #909840",
"@ c #707880",
/* pixels */
"                                    ",
"                                    ",
"   @                                ",
"  @@@                               ",
"  @@@                               ",
"  @@@                               ",
"  @@@                               ",
"  @@@                               ",
"  @@@                               ",
"  @@@                               ",
"  @@@                               ",
"  @@@         XoO++OoX              ",
"  @@@         XoO++OoX              ",
"  @@           oO++Oo               ",
"  @@@  @@                           ",
"  @@@  @                            ",
"  @@@@@                             ",
"  @@@@                              ",
"  @@@       ............            ",
"  @@       ..............           ",
"                                    ",
"                                    ",
"                                    ",
"                                    ",
"                                    ",
"       ......................       ",
"       ......................       ",
"                                    ",
"                                    ",
"                                    ",
"                                    ",
"   ..............................   ",
"  ................................  ",
"   ..............................   ",
"                                    ",
"                                    "
};
