/* XPM */
static char *network_rx_2[] = {
/* columns rows colors chars-per-pixel */
"36 36 4 1 ",
"  c None",
". c #373B41",
"X c #8C9440",
"o c #707880",
/* pixels */
"                                    ",
"                                    ",
"   o                                ",
"  ooo                               ",
"  ooo                               ",
"  ooo                               ",
"  ooo                               ",
"  ooo                               ",
"  ooo                               ",
"  ooo                               ",
"  ooo                               ",
"  ooo         XXXXXXXX              ",
"  ooo         XXXXXXXX              ",
"  oo           XXXXXX               ",
"  ooo  oo                           ",
"  ooo  o                            ",
"  ooooo                             ",
"  oooo                              ",
"  ooo       ............            ",
"  oo       ..............           ",
"                                    ",
"                                    ",
"                                    ",
"                                    ",
"                                    ",
"       ......................       ",
"       ......................       ",
"                                    ",
"                                    ",
"                                    ",
"                                    ",
"   ..............................   ",
"  ................................  ",
"   ..............................   ",
"                                    ",
"                                    "
};
