/* XPM */
static char *network_rx_3[] = {
/* columns rows colors chars-per-pixel */
"36 36 9 1 ",
"  c None",
". c #333741",
"X c #373B41",
"o c #454A41",
"O c #6C7240",
"+ c #899140",
"@ c #8C9440",
"# c #8F9740",
"$ c #707880",
/* pixels */
"                                    ",
"                                    ",
"   $                                ",
"  $$$                               ",
"  $$$                               ",
"  $$$                               ",
"  $$$                               ",
"  $$$                               ",
"  $$$                               ",
"  $$$                               ",
"  $$$                               ",
"  $$$         @@@@@@@@              ",
"  $$$         @@@@@@@@              ",
"  $$           @@@@@@               ",
"  $$$  $$                           ",
"  $$$  $                            ",
"  $$$$$                             ",
"  $$$$                              ",
"  $$$       @@+Oo..oO+@@            ",
"  $$       @@@+Oo..oO+@@@           ",
"                                    ",
"                                    ",
"                                    ",
"                                    ",
"                                    ",
"       XXXXXXXXXXXXXXXXXXXXXX       ",
"       XXXXXXXXXXXXXXXXXXXXXX       ",
"                                    ",
"                                    ",
"                                    ",
"                                    ",
"   XXXXXXXXXXXXXXXXXXXXXXXXXXXXXX   ",
"  XXXXXXXXXXXXXXXXXXXXXXXXXXXXXXXX  ",
"   XXXXXXXXXXXXXXXXXXXXXXXXXXXXXX   ",
"                                    ",
"                                    "
};
