/* XPM */
static char *network_tx_6[] = {
/* columns rows colors chars-per-pixel */
"36 36 5 1 ",
"  c None",
". c #373B41",
"X c #8C9440",
"o c #DE935F",
"O c #707880",
/* pixels */
"                                    ",
"                                    ",
"   ..............................   ",
"  ................................  ",
"   ..............................   ",
"                                    ",
"                                    ",
"                                    ",
"                                    ",
"       oooooooooooooooooooooo       ",
"       oooooooooooooooooooooo       ",
"                                    ",
"                                    ",
"                                    ",
"                                    ",
"                                    ",
"           XXXXXXXXXXXXXX       OO  ",
"            XXXXXXXXXXXX       OOO  ",
"                              OOOO  ",
"                             OOOOO  ",
"                            O  OOO  ",
"                           OO  OOO  ",
"               XXXXXX           OO  ",
"              XXXXXXXX         OOO  ",
"              XXXXXXXX         OOO  ",
"                               OOO  ",
"                               OOO  ",
"                               OOO  ",
"                               OOO  ",
"                               OOO  ",
"                               OOO  ",
"                               OOO  ",
"                               OOO  ",
"                                O   ",
"                                    ",
"                                    "
};
