/* XPM */
static char *network_tx_0[] = {
/* columns rows colors chars-per-pixel */
"36 36 3 1 ",
"  c None",
". c #373B41",
"X c #707880",
/* pixels */
"                                    ",
"                                    ",
"   ..............................   ",
"  ................................  ",
"   ..............................   ",
"                                    ",
"                                    ",
"                                    ",
"                                    ",
"       ......................       ",
"       ......................       ",
"                                    ",
"                                    ",
"                                    ",
"                                    ",
"                                    ",
"           ..............       XX  ",
"            ............       XXX  ",
"                              XXXX  ",
"                             XXXXX  ",
"                            X  XXX  ",
"                           XX  XXX  ",
"               ......           XX  ",
"              ........         XXX  ",
"              ........         XXX  ",
"                               XXX  ",
"                               XXX  ",
"                               XXX  ",
"                               XXX  ",
"                               XXX  ",
"                               XXX  ",
"                               XXX  ",
"                               XXX  ",
"                                X   ",
"                                    ",
"                                    "
};
