/* XPM */
static char *network_tx_5[] = {
/* columns rows colors chars-per-pixel */
"36 36 12 1 ",
"  c None",
". c #2B353F",
"X c #373B41",
"o c #3C3E42",
"O c #775D4C",
"+ c #8C9440",
"@ c #C2845A",
"# c #DE935F",
"$ c #E19460",
"% c #E29560",
"& c #E59760",
"* c #707880",
/* pixels */
"                                    ",
"                                    ",
"   XXXXXXXXXXXXXXXXXXXXXXXXXXXXXX   ",
"  XXXXXXXXXXXXXXXXXXXXXXXXXXXXXXXX  ",
"   XXXXXXXXXXXXXXXXXXXXXXXXXXXXXX   ",
"                                    ",
"                                    ",
"                                    ",
"                                    ",
"       #$$@Oo.oO@&&@Oo.oO@$$#       ",
"       #$$@Oo.oO@&&@Oo.oO@$$#       ",
"                                    ",
"                                    ",
"                                    ",
"                                    ",
"                                    ",
"           ++++++++++++++       **  ",
"            ++++++++++++       ***  ",
"                              ****  ",
"                             *****  ",
"                            *  ***  ",
"                           **  ***  ",
"               ++++++           **  ",
"              ++++++++         ***  ",
"              ++++++++         ***  ",
"                               ***  ",
"                               ***  ",
"                               ***  ",
"                               ***  ",
"                               ***  ",
"                               ***  ",
"                               ***  ",
"                               ***  ",
"                                *   ",
"                                    ",
"                                    "
};
