/* XPM */
static char *weather_sunny[] = {
/* columns rows colors chars-per-pixel */
"36 24 2 1 ",
"  c None",
". c #DE935F",
/* pixels */
"                                    ",
"                                    ",
"                                    ",
"                 ..                 ",
"                ....                ",
"              .  ..  .              ",
"                                    ",
"               ..  ..               ",
"           .  ........  .           ",
"             ..      ..             ",
"          .  ..      ..  .          ",
"         ...  .      .  ...         ",
"         ...  .      .  ...         ",
"          .  ..      ..  .          ",
"             ..      ..             ",
"           .  ........  .           ",
"               ..  ..               ",
"                                    ",
"              .  ..  .              ",
"                ....                ",
"                 ..                 ",
"                                    ",
"                                    ",
"                                    "
};
