/* XPM */
static char *weather_mostly_cloudy[] = {
/* columns rows colors chars-per-pixel */
"36 24 25 1 ",
"  c None",
". c #797A7D",
"X c #7A7B7D",
"o c #807C7B",
"O c #827D7A",
"+ c #837D7A",
"@ c #918076",
"# c #9F8372",
"$ c #BD8B69",
"% c #A48571",
"& c #DE935F",
"* c #DF935F",
"= c #E2945E",
"- c #CB8E65",
"; c #CC8F64",
": c #CC8E65",
"> c #C28C68",
", c #D49162",
"< c #6B7781",
"1 c #6A7682",
"2 c #6C7781",
"3 c #6D7781",
"4 c #6F7880",
"5 c #6E7881",
"6 c #707880",
/* pixels */
"         &&                         ",
"         &&         666     6       ",
"      &  &  &      66666   666      ",
"                 666    666   6     ",
"       &&&      666      6     6    ",
"   &  &&&&,;-> 46              66   ",
"      &&  @oo.6666            66    ",
"  &&  =$  121 666666     666 66     ",
"  &&  ;#4466     6666   666666      ",
"      o.6          6666666 666      ",
"     422            66666   666     ",
"   &%44                      666    ",
"    o6                        66    ",
"    26                        66    ",
"    66                        666   ",
"    66                        666   ",
"    666                      666    ",
"     666                    666     ",
"      666      6666666     666      ",
"       6666666666666666666666       ",
"        66666666     6666666        ",
"                                    ",
"                                    ",
"                                    "
};
