/* XPM */
static char *weather_obscured[] = {
/* columns rows colors chars-per-pixel */
"36 24 2 1 ",
"  c None",
". c #707880",
/* pixels */
"                                    ",
"                                    ",
"  .   .    .   .    .   .           ",
"                                    ",
"    .   ..   .   ..   .   ..        ",
"   ...  ..  ...  ..  ...  ..        ",
"                                    ",
"                                    ",
"  .   .   ..   ..  ..   ..  ..      ",
"          ..   ..  ..   ..  ..   .  ",
"    .   ..                  .       ",
"   ...  ..  ...  ..  ...  ..        ",
"        ..  ...  ..  ...  ..  ...   ",
"       .                  ..   .    ",
"  .   ..  ..   ..  ..   ..          ",
"      ..  ..   ..  ..   ..   .   .  ",
"                                    ",
"                                    ",
"        ..  ...  ..  ...  ..  ...   ",
"        ..   .   ..   .   ..   .    ",
"                                    ",
"           .   .    .   .    .   .  ",
"                                    ",
"                                    "
};
